<svg width="20" height="39" viewBox="0 0 20 39" fill="none" xmlns="http://www.w3.org/2000/svg">
<g id="Group 22">
<path id="Vector 1" d="M10.5 11L10.5 10.5L9.5 10.5L9.5 11L10.5 11ZM9.64645 27.3536C9.84171 27.5488 10.1583 27.5488 10.3536 27.3536L13.5355 24.1716C13.7308 23.9763 13.7308 23.6597 13.5355 23.4645C13.3403 23.2692 13.0237 23.2692 12.8284 23.4645L10 26.2929L7.17157 23.4645C6.97631 23.2692 6.65973 23.2692 6.46447 23.4645C6.2692 23.6597 6.2692 23.9763 6.46447 24.1716L9.64645 27.3536ZM9.5 11L9.5 27L10.5 27L10.5 11L9.5 11Z" fill="white"/>
<rect id="Rectangle 49" x="0.25" y="0.25" width="19.5" height="38.5" rx="9.75" stroke="black" stroke-width="0.5"/>
</g>
</svg>
